<svg width="40" height="41" viewBox="0 0 40 41" fill="none" xmlns="http://www.w3.org/2000/svg">
<rect y="0.666687" width="40" height="40" rx="20" fill="#F8B602"/>
<g clip-path="url(#clip0_554_450)">
<path d="M26.6344 19.3136H21.5375V14.0323C21.5375 13.2761 20.925 12.6636 20.1687 12.6636C19.4125 12.6636 18.8 13.2761 18.8 14.0323V19.3136H13.3625C12.6125 19.3136 12 19.9261 12 20.6823C12 21.4386 12.6125 22.0511 13.3687 22.0511H18.8063V27.3011C18.8063 28.0573 19.4188 28.6698 20.175 28.6698C20.9313 28.6698 21.5437 28.0573 21.5437 27.3011V22.0511H26.6406C27.3969 22.0511 28.0094 21.4386 28.0094 20.6823C28 19.9261 27.3906 19.3136 26.6344 19.3136Z" fill="white"/>
</g>
<defs>
<clipPath id="clip0_554_450">
<rect width="16" height="16" fill="white" transform="translate(12 12.6667)"/>
</clipPath>
</defs>
</svg>
