<svg width="41" height="40" viewBox="0 0 41 40" fill="none" xmlns="http://www.w3.org/2000/svg">
<path fill-rule="evenodd" clip-rule="evenodd" d="M10.3949 6.98926C10.82 6.57382 11.4147 6.30289 12.5401 6.15561C13.6989 6.00278 15.2328 6 17.4336 6H23.5664C25.7673 6 27.3012 6.00278 28.4599 6.15561C29.5853 6.30289 30.18 6.57382 30.6052 6.98926C31.0289 7.40608 31.3054 7.98963 31.4569 9.09143C31.6125 10.2266 31.6153 11.7299 31.6153 13.8849V24.7764H14.0337C12.7791 24.7764 11.9232 24.7751 11.1896 24.9682C10.5338 25.1405 9.92524 25.4211 9.38477 25.7907V13.8863C9.38477 11.7299 9.38754 10.2266 9.54316 9.09143C9.6946 7.98963 9.9711 7.40608 10.3949 6.98926ZM14.3686 11.2575C14.0669 11.2545 13.7763 11.3714 13.5607 11.5824C13.345 11.7933 13.2218 12.0812 13.2181 12.3829C13.2181 13.0054 13.7322 13.5097 14.3672 13.5097H26.6329C26.9343 13.5123 27.2245 13.3954 27.4399 13.1844C27.6552 12.9735 27.7782 12.6858 27.7819 12.3843C27.7786 12.0826 27.6558 11.7946 27.4404 11.5833C27.225 11.3721 26.9345 11.2549 26.6329 11.2575H14.3686ZM13.2181 17.6404C13.2181 17.0194 13.7322 16.515 14.3672 16.515H22.0325C22.3342 16.5121 22.6248 16.6289 22.8404 16.8399C23.0561 17.0508 23.1793 17.3388 23.183 17.6404C23.1797 17.9424 23.0566 18.2306 22.8409 18.4419C22.6252 18.6532 22.3345 18.7702 22.0325 18.7673H14.3672C14.0657 18.7699 13.7755 18.6529 13.5602 18.4419C13.3448 18.231 13.2218 17.9419 13.2181 17.6404Z" fill="#fff"/>
<path d="M14.189 27.2405C12.6898 27.2405 12.166 27.2503 11.7631 27.3559C11.2265 27.4946 10.7315 27.7615 10.3208 28.1337C9.91012 28.5059 9.59594 28.9723 9.40527 29.4928C9.4275 30.0235 9.46502 30.4917 9.52198 30.9086C9.67343 32.0104 9.94992 32.5939 10.3737 33.0107C10.7988 33.4262 11.3935 33.6971 12.5189 33.8444C13.6777 33.9972 15.2116 34 17.4124 34H23.5453C25.7461 34 27.28 33.9972 28.4388 33.8458C29.5642 33.6971 30.1588 33.4262 30.584 33.0107C30.8841 32.7148 31.112 32.3355 31.2718 31.7464H14.346C14.0445 31.749 13.7544 31.632 13.539 31.4211C13.3236 31.2101 13.2006 30.9224 13.197 30.621C13.197 29.9985 13.711 29.4942 14.346 29.4942H31.5524C31.5802 28.8467 31.5899 28.1048 31.5941 27.2405H14.189Z" fill="#fff"/>
</svg>