<svg width="25" height="28" viewBox="0 0 26 29" fill="none" xmlns="http://www.w3.org/2000/svg">
<path d="M0.833008 24.8333C0.833008 27.6967 7.31301 29 13.333 29C19.353 29 25.833 27.6967 25.833 24.8333C25.833 22.56 21.898 21.5333 19.063 21.09L20.9997 19.1667C22.5148 17.6516 23.5467 15.7213 23.9648 13.6198C24.3829 11.5184 24.1684 9.34009 23.3485 7.36051C22.5285 5.38092 21.14 3.68893 19.3584 2.49851C17.5769 1.30809 15.4823 0.672699 13.3397 0.672699C11.197 0.672699 9.10245 1.30809 7.3209 2.49851C5.53935 3.68893 4.15081 5.38092 3.33089 7.36051C2.51097 9.34009 2.29649 11.5184 2.71457 13.6198C3.13265 15.7213 4.16451 17.6516 5.67967 19.1667L7.60967 21.0967C4.76801 21.5333 0.833008 22.56 0.833008 24.8333ZM14.9997 7.33335C14.9997 7.17859 15.0428 7.02688 15.1241 6.89524C15.2055 6.76359 15.3219 6.6572 15.4603 6.58799C15.5988 6.51878 15.7537 6.48948 15.9078 6.50338C16.062 6.51728 16.2092 6.57382 16.333 6.66668C17.3649 7.44091 18.2218 8.42423 18.8476 9.55236C19.4735 10.6805 19.8541 11.928 19.9647 13.2133C20.0013 13.6082 19.8949 14.0031 19.6648 14.3261C19.4348 14.6491 19.0965 14.8788 18.7113 14.9733L16.6663 15.485V17.3333C16.6663 17.5544 16.5785 17.7663 16.4223 17.9226C16.266 18.0789 16.054 18.1667 15.833 18.1667C15.612 18.1667 15.4 18.0789 15.2438 17.9226C15.0875 17.7663 14.9997 17.5544 14.9997 17.3333V7.33335ZM7.49967 9.00001V7.33335C7.49967 7.11233 7.58747 6.90037 7.74375 6.74409C7.90003 6.58781 8.11199 6.50001 8.33301 6.50001C8.55402 6.50001 8.76598 6.58781 8.92226 6.74409C9.07854 6.90037 9.16634 7.11233 9.16634 7.33335V9.00001C9.16966 9.28742 9.24837 9.56892 9.39461 9.81636C9.54085 10.0638 9.7495 10.2685 9.99967 10.41V7.33335C9.99967 7.11233 10.0875 6.90037 10.2438 6.74409C10.4 6.58781 10.612 6.50001 10.833 6.50001C11.054 6.50001 11.266 6.58781 11.4223 6.74409C11.5785 6.90037 11.6663 7.11233 11.6663 7.33335V10.41C11.9165 10.2685 12.1252 10.0638 12.2714 9.81636C12.4176 9.56892 12.4964 9.28742 12.4997 9.00001V7.33335C12.4997 7.11233 12.5875 6.90037 12.7438 6.74409C12.9 6.58781 13.112 6.50001 13.333 6.50001C13.554 6.50001 13.766 6.58781 13.9223 6.74409C14.0785 6.90037 14.1663 7.11233 14.1663 7.33335V9.00001C14.1636 9.73686 13.9167 10.452 13.4644 11.0337C13.0121 11.6154 12.3798 12.0308 11.6663 12.215V17.3333C11.6663 17.5544 11.5785 17.7663 11.4223 17.9226C11.266 18.0789 11.054 18.1667 10.833 18.1667C10.612 18.1667 10.4 18.0789 10.2438 17.9226C10.0875 17.7663 9.99967 17.5544 9.99967 17.3333V12.215C9.28622 12.0308 8.65391 11.6154 8.20159 11.0337C7.74927 10.452 7.50244 9.73686 7.49967 9.00001ZM9.08967 22.5767L11.5647 25.0533C11.7968 25.2857 12.0725 25.47 12.3759 25.5957C12.6793 25.7214 13.0046 25.7861 13.333 25.7861C13.6614 25.7861 13.9867 25.7214 14.2901 25.5957C14.5935 25.47 14.8692 25.2857 15.1013 25.0533L17.5763 22.5767C22.1563 23.1067 24.1663 24.3133 24.1663 24.8333C24.1663 25.58 20.4813 27.3333 13.333 27.3333C6.18467 27.3333 2.49967 25.58 2.49967 24.8333C2.49967 24.3133 4.50968 23.1067 9.08967 22.5767Z" fill="white"/>
</svg>
